<!-- Figma 2212:111076 · Character/help · 14×14 -->
<svg width="14" height="14" viewBox="0 0 14 14" fill="none" xmlns="http://www.w3.org/2000/svg" aria-hidden="true">
  <path d="M6.99935 12.8327C8.61018 12.8327 10.0685 12.1798 11.1241 11.1241C12.1798 10.0685 12.8327 8.61018 12.8327 6.99935C12.8327 5.38852 12.1798 3.93019 11.1241 2.87456C10.0685 1.81893 8.61018 1.16602 6.99935 1.16602C5.38852 1.16602 3.93019 1.81893 2.87456 2.87456C1.81893 3.93019 1.16602 5.38852 1.16602 6.99935C1.16602 8.61018 1.81893 10.0685 2.87456 11.1241C3.93019 12.1798 5.38852 12.8327 6.99935 12.8327Z" fill="#C6CACD" stroke="#C6CACD" stroke-width="1.16667" stroke-linejoin="round"/>
  <path d="M7 8.34831V7.18164C7.9665 7.18164 8.75 6.39814 8.75 5.43164C8.75 4.46514 7.9665 3.68164 7 3.68164C6.0335 3.68164 5.25 4.46514 5.25 5.43164" stroke="white" stroke-width="1.16667" stroke-linecap="round" stroke-linejoin="round"/>
  <path fill-rule="evenodd" clip-rule="evenodd" d="M7.00065 10.974C7.40336 10.974 7.72982 10.6475 7.72982 10.2448C7.72982 9.84208 7.40336 9.51562 7.00065 9.51562C6.59794 9.51562 6.27148 9.84208 6.27148 10.2448C6.27148 10.6475 6.59794 10.974 7.00065 10.974Z" fill="white"/>
</svg>
