<!-- Figma 1732:122579 semi-icons-help_circle 16x16 form label -->
<svg width="16" height="16" viewBox="0 0 16 16" fill="none" xmlns="http://www.w3.org/2000/svg" aria-hidden="true">
  <path fill-rule="evenodd" clip-rule="evenodd" d="M8 14.6667C11.6819 14.6667 14.6667 11.6819 14.6667 8C14.6667 4.3181 11.6819 1.33333 8 1.33333C4.3181 1.33333 1.33333 4.3181 1.33333 8C1.33333 11.6819 4.3181 14.6667 8 14.6667ZM7.88477 9.32161C7.23438 9.32161 6.8877 8.8737 6.8877 8.32861C6.8877 7.59375 7.18587 7.16992 8.20459 6.49023C8.68441 6.15267 9.0249 5.8418 9.0249 5.35449C9.0249 4.71582 8.53467 4.29883 7.81592 4.29883C7.20215 4.29883 6.81348 4.49805 6.48096 4.90462C6.21436 5.23079 5.98828 5.35449 5.66309 5.35449C5.12923 5.35449 4.88867 4.9873 4.88867 4.57031C4.88867 4.14681 5.15755 3.71582 5.55013 3.36556C6.13574 2.84212 6.95801 2.49902 8.30176 2.49902C10.2539 2.49902 11.6279 3.50684 11.6279 5.18164C11.6279 6.625 10.9648 7.22559 10.166 7.83496C9.51758 8.35352 9.22559 8.68359 9.00977 9.28613C8.77051 9.78027 8.5625 10.0605 7.88477 9.32161ZM7.87158 12.2432C7.27002 12.2432 6.79346 11.8672 6.79346 11.2656C6.79346 10.6641 7.27002 10.2881 7.87158 10.2881C8.47314 10.2881 8.93604 10.6641 8.93604 11.2656C8.93604 11.8672 8.47314 12.2432 7.87158 12.2432Z" fill="rgba(23,26,28,0.45)"/>
</svg>
