<!-- Figma 1886:87435 · semi-icons-brief_stroked · 16×16 -->
<svg width="16" height="16" viewBox="0 0 16 16" fill="none" xmlns="http://www.w3.org/2000/svg" aria-hidden="true">
  <path d="M9.05762 0.666667C9.41109 0.66678 9.75005 0.807344 10 1.05729L13.6094 4.66667C13.8593 4.91661 13.9999 5.25557 14 5.60905V14C14 14.7363 13.4032 15.3338 12.667 15.334H3.33301C2.59678 15.3338 2.00018 14.7363 2 14V2C2.00018 1.26389 2.59689 0.667175 3.33301 0.666667H9.05762ZM3.33301 14H12.667V6H9.33301C8.96508 5.99983 8.66717 5.70192 8.66699 5.33398V2H3.33301V14ZM8.66699 10.6667C8.85083 10.6669 8.99982 10.8159 9 11V11.6667C9 11.8507 8.85094 11.9995 8.66699 12H5.33301C5.14906 11.9995 5 11.8507 5 11.6667V11C5.00018 10.8162 5.14917 10.6672 5.33301 10.6667H8.66699ZM8.66699 8C8.85083 8.00018 8.99982 8.14917 9 8.33301V9C9 9.18399 8.85094 9.33284 8.66699 9.33301H5.33301C5.14906 9.33284 5 9.18399 5 9V8.33301C5.00018 8.14917 5.14917 8.00018 5.33301 8H8.66699ZM10 4.66667H11.7246L10 2.94206V4.66667Z" fill="#1C5CFB"/>
</svg>
