<!-- Figma 1732:122551 semi-icons-pulse 16x16 -->
<svg width="16" height="16" viewBox="0 0 16 16" fill="none" xmlns="http://www.w3.org/2000/svg" aria-hidden="true">
  <path fill-rule="evenodd" clip-rule="evenodd" d="M6.42389 1.06526C6.83966 1.07582 7.19971 1.35678 7.31103 1.75751L9.68233 10.7523L10.5702 7.7007C10.699 7.31455 11.0603 7.05409 11.4674 7.05409H14.3043C14.8266 7.05409 15.25 7.47747 15.25 7.99974C15.25 8.52201 14.8266 8.94539 14.3043 8.94539H12.149L10.4972 14.2885C10.3657 14.6831 9.99183 14.9454 9.57607 14.9348C9.1603 14.9243 8.80025 14.6433 8.68893 14.2426L6.31763 5.24776L5.42971 8.29878C5.301 8.68493 4.93963 8.94539 4.53259 8.94539L1.69563 8.9457C1.17336 8.9457 0.74998 8.52231 0.74998 8.00004C0.74998 7.47777 1.17336 7.05439 1.69563 7.05439L3.851 7.05409L5.50275 1.71156C5.63427 1.31701 6.00813 1.05469 6.42389 1.06526Z" fill="rgba(28,31,35,0.6)"/>
</svg>
