<!-- Figma 322:38975 · semi-icons-calendar_clock · 16×16 · 2212:113984 -->
<svg width="16" height="16" viewBox="0 0 13.3333 13.3333" fill="none" xmlns="http://www.w3.org/2000/svg" aria-hidden="true">
  <path d="M0 2V11.3333C0 12.4379 0.89543 13.3333 2 13.3333H6.73401C6.34342 12.9506 6.01982 12.4997 5.78242 12H2.66667C1.93029 12 1.33333 11.403 1.33333 10.6667V4C1.33333 3.63181 1.63181 3.33333 2 3.33333H11.3333C11.7015 3.33333 12 3.63181 12 4V5.78242C12.4997 6.01982 12.9506 6.34342 13.3333 6.73401V2C13.3333 0.895431 12.4379 0 11.3333 0H2C0.895431 0 0 0.89543 0 2Z" fill="rgba(28,31,35,0.6)"/>
  <path d="M9.33333 5.33333H10C9.64091 5.33333 9.2913 5.37389 8.95549 5.45067C9.06288 5.37666 9.19305 5.33333 9.33333 5.33333Z" fill="rgba(28,31,35,0.6)"/>
  <path d="M7.66539 5.95839C7.64391 5.60958 7.35421 5.33333 7 5.33333H6.33333C5.96514 5.33333 5.66667 5.63181 5.66667 6V6.66667C5.66667 6.98277 5.88666 7.24748 6.1819 7.31606C6.57132 6.76309 7.07784 6.29852 7.66539 5.95839Z" fill="rgba(28,31,35,0.6)"/>
  <path d="M3.33333 5.33333C2.96514 5.33333 2.66667 5.63181 2.66667 6V6.66667C2.66667 7.03486 2.96514 7.33333 3.33333 7.33333H4C4.36819 7.33333 4.66667 7.03486 4.66667 6.66667V6C4.66667 5.63181 4.36819 5.33333 4 5.33333H3.33333Z" fill="rgba(28,31,35,0.6)"/>
  <path d="M2.66667 9.33333C2.66667 8.96514 2.96514 8.66667 3.33333 8.66667H4C4.36819 8.66667 4.66667 8.96514 4.66667 9.33333V10C4.66667 10.3682 4.36819 10.6667 4 10.6667H3.33333C2.96514 10.6667 2.66667 10.3682 2.66667 10V9.33333Z" fill="rgba(28,31,35,0.6)"/>
  <path fill-rule="evenodd" clip-rule="evenodd" d="M13.3333 10C13.3333 11.8409 11.8409 13.3333 10 13.3333C8.15905 13.3333 6.66667 11.8409 6.66667 10C6.66667 8.15905 8.15905 6.66667 10 6.66667C11.8409 6.66667 13.3333 8.15905 13.3333 10ZM10.6667 8.66667C10.6667 8.29848 10.3682 8 10 8C9.63181 8 9.33333 8.29848 9.33333 8.66667V10C9.33333 10.1768 9.40357 10.3464 9.5286 10.4714L10.5286 11.4714C10.7889 11.7318 11.2111 11.7318 11.4714 11.4714C11.7318 11.2111 11.7318 10.7889 11.4714 10.5286L10.6667 9.72386V8.66667Z" fill="rgba(28,31,35,0.6)"/>
</svg>
