<!-- Figma 1886:87423 · 手机端 · 16×16 -->
<svg width="16" height="16" viewBox="0 0 16 16" fill="none" xmlns="http://www.w3.org/2000/svg" aria-hidden="true">
  <path fill-rule="evenodd" clip-rule="evenodd" d="M12.7868 0.666667C13.1551 0.666667 13.4535 0.966667 13.4535 1.33333V14.6667C13.4535 15.0333 13.1551 15.3333 12.7868 15.3333H3.45345C3.08512 15.3333 2.78678 15.0333 2.78678 14.6667V1.33333C2.78678 0.966667 3.08512 0.666667 3.45345 0.666667H12.7868ZM12.1202 1.99998H4.12016V14H12.1202V1.99998ZM8.12016 11C8.67244 11 9.12016 11.4477 9.12016 12C9.12016 12.5523 8.67244 13 8.12016 13C7.56787 13 7.12016 12.5523 7.12016 12C7.12016 11.4477 7.56787 11 8.12016 11ZM9.12016 3.66665L9.15903 3.66889C9.32481 3.68814 9.45349 3.82903 9.45349 3.99998V4.66665L9.45125 4.70552C9.43199 4.8713 9.2911 4.99998 9.12016 4.99998H7.12016L7.08128 4.99774C6.9155 4.97848 6.78682 4.83759 6.78682 4.66665V3.99998L6.78907 3.96111C6.80832 3.79533 6.94921 3.66665 7.12016 3.66665H9.12016Z" fill="rgba(28, 31, 35, 0.6)"/>
</svg>
