<!-- Figma node 1886:87457 · Group 2053140494 · 48×48 -->
<svg width="48" height="48" viewBox="0 0 48 48" fill="none" xmlns="http://www.w3.org/2000/svg" aria-hidden="true">
  <g id="Group_2053140494">
    <rect id="Rectangle_34626082" y="17" width="20" height="31" rx="3" fill="#EAF5FF"/>
    <rect id="Rectangle_34626083" x="28" width="20" height="48" rx="3" fill="#CBE7FE"/>
    <g id="Union">
      <mask id="path-3-outside-1_2177_80960" maskUnits="userSpaceOnUse" x="11.1273" y="9.20307" width="32" height="33" fill="black">
        <rect fill="white" x="11.1273" y="9.20307" width="32" height="33"/>
        <path d="M35.0001 22.9999C34.9998 38.9836 20.0695 39.6641 13.4288 39.5536C13.0751 39.5478 13.012 38.9482 13.3497 38.8427C24.7667 35.2759 23.0002 29.5799 23.0001 22.9999H18.0909C17.6447 22.9996 17.4225 22.4586 17.7394 22.1445L28.6486 11.3476C28.8434 11.155 29.1569 11.1548 29.3517 11.3476L40.2599 22.1445C40.5771 22.4587 40.3548 22.9998 39.9083 22.9999H35.0001Z"/>
      </mask>
      <path d="M35.0001 22.9999C34.9998 38.9836 20.0695 39.6641 13.4288 39.5536C13.0751 39.5478 13.012 38.9482 13.3497 38.8427C24.7667 35.2759 23.0002 29.5799 23.0001 22.9999H18.0909C17.6447 22.9996 17.4225 22.4586 17.7394 22.1445L28.6486 11.3476C28.8434 11.155 29.1569 11.1548 29.3517 11.3476L40.2599 22.1445C40.5771 22.4587 40.3548 22.9998 39.9083 22.9999H35.0001Z" fill="#1C5CFB"/>
      <path d="M35.0001 22.9999V20.9999H33.0002L33.0001 22.9999L35.0001 22.9999ZM13.4288 39.5536L13.4621 37.5539H13.4621L13.4288 39.5536ZM13.3497 38.8427L13.9461 40.7517L13.9461 40.7517L13.3497 38.8427ZM23.0001 22.9999L25.0001 22.9999L25.0001 20.9999H23.0001V22.9999ZM18.0909 22.9999L18.0893 24.9999H18.0909V22.9999ZM17.7394 22.1445L16.3325 20.7229L16.3312 20.7242L17.7394 22.1445ZM28.6486 11.3476L27.2426 9.9252L27.2417 9.92607L28.6486 11.3476ZM29.3517 11.3476L30.7586 9.92613L30.7586 9.9261L29.3517 11.3476ZM40.2599 22.1445L41.6674 20.7236L41.6668 20.723L40.2599 22.1445ZM39.9083 22.9999V24.9999H39.9088L39.9083 22.9999ZM35.0001 22.9999L33.0001 22.9999C33 26.6744 32.146 29.3201 30.8871 31.254C29.6254 33.1924 27.8688 34.5507 25.8507 35.5035C21.7374 37.4457 16.7517 37.6086 13.4621 37.5539L13.4288 39.5536L13.3956 41.5534C16.7467 41.6091 22.5465 41.4871 27.5585 39.1206C30.1031 37.9192 32.4942 36.1174 34.2395 33.4362C35.9877 30.7506 37 27.3173 37.0001 23L35.0001 22.9999ZM13.4288 39.5536L13.4621 37.5539C13.9964 37.5628 14.4499 37.8174 14.7373 38.1522C14.9943 38.4516 15.0916 38.7735 15.1183 39.0198C15.1596 39.4002 15.0293 40.4133 13.9461 40.7517L13.3497 38.8427L12.7533 36.9337C11.3325 37.3776 11.0649 38.7432 11.1417 39.4512C11.2184 40.1586 11.8085 41.527 13.3956 41.5534L13.4288 39.5536ZM13.3497 38.8427L13.9461 40.7517C19.9623 38.8722 23.0496 36.249 24.3345 32.7387C24.9423 31.078 25.0842 29.3726 25.0977 27.7666C25.1045 26.9615 25.0785 26.1453 25.0527 25.3579C25.0264 24.5579 25.0001 23.7835 25.0001 22.9999L23.0001 22.9999L21.0001 23C21.0001 23.8614 21.0291 24.7043 21.0548 25.4892C21.081 26.2867 21.1038 27.0229 21.0979 27.7329C21.0859 29.1569 20.9558 30.3321 20.5782 31.3638C19.8921 33.2382 18.1541 35.2464 12.7533 36.9337L13.3497 38.8427ZM23.0001 22.9999V20.9999H18.0909V22.9999V24.9999H23.0001V22.9999ZM18.0909 22.9999L18.0926 20.9999C19.4335 21.0011 20.0969 22.6234 19.1475 23.5647L17.7394 22.1445L16.3312 20.7242C14.7481 22.2939 15.8559 24.9981 18.0893 24.9999L18.0909 22.9999ZM17.7394 22.1445L19.1463 23.566L30.0554 12.7691L28.6486 11.3476L27.2417 9.92607L16.3325 20.7229L17.7394 22.1445ZM28.6486 11.3476L30.0546 12.77C29.4712 13.3466 28.5303 13.3485 27.9448 12.7691L29.3517 11.3476L30.7586 9.9261C29.7836 8.96109 28.2156 8.96333 27.2426 9.9252L28.6486 11.3476ZM29.3517 11.3476L27.9447 12.769L38.8529 23.5659L40.2599 22.1445L41.6668 20.723L30.7586 9.92613L29.3517 11.3476ZM40.2599 22.1445L38.8523 23.5653C37.9027 22.6245 38.5654 21.0002 39.9079 20.9999L39.9083 22.9999L39.9088 24.9999C42.1443 24.9994 43.2515 22.2928 41.6674 20.7236L40.2599 22.1445ZM39.9083 22.9999V20.9999H35.0001V22.9999V24.9999H39.9083V22.9999Z" fill="rgba(255, 255, 255, 0.1)" mask="url(#path-3-outside-1_2177_80960)"/>
    </g>
  </g>
</svg>
